<svg width="15" height="27" viewBox="0 0 15 27" fill="none" xmlns="http://www.w3.org/2000/svg">
<path d="M13.3749 26.6015C13.5538 26.599 13.728 26.5441 13.876 26.4435C14.024 26.3428 14.1392 26.201 14.2073 26.0356C14.2754 25.8701 14.2935 25.6883 14.2593 25.5127C14.225 25.3371 14.14 25.1754 14.0148 25.0476L2.48233 13.5L14.0148 1.95231C14.1844 1.78262 14.2798 1.55246 14.2798 1.31247C14.2798 1.07248 14.1844 0.842322 14.0148 0.672625C13.8451 0.502928 13.6149 0.407593 13.3749 0.407593C13.1349 0.407593 12.9048 0.502928 12.7351 0.672625L0.547566 12.8601C0.460915 12.9427 0.391928 13.0419 0.34479 13.1519C0.297653 13.2619 0.273347 13.3803 0.273347 13.5C0.273347 13.6196 0.297653 13.738 0.34479 13.848C0.391928 13.958 0.460915 14.0573 0.547566 14.1398L12.7351 26.3273C12.8176 26.414 12.9169 26.483 13.0268 26.5301C13.1368 26.5772 13.2552 26.6015 13.3749 26.6015Z" fill="white"/>
</svg>
