<svg width="15" height="27" viewBox="0 0 15 27" fill="none" xmlns="http://www.w3.org/2000/svg">
<path d="M1.6246 26.6015C1.4457 26.599 1.27146 26.5441 1.1235 26.4435C0.975537 26.3428 0.860353 26.201 0.792228 26.0356C0.724103 25.8701 0.706032 25.6883 0.740256 25.5127C0.77448 25.3371 0.859495 25.1754 0.984759 25.0476L12.5172 13.5L0.984759 1.95231C0.815062 1.78262 0.719727 1.55246 0.719727 1.31247C0.719727 1.07248 0.815062 0.842322 0.984759 0.672625C1.15446 0.502928 1.38461 0.407593 1.6246 0.407593C1.86459 0.407593 2.09475 0.502928 2.26445 0.672625L14.4519 12.8601C14.5386 12.9427 14.6076 13.0419 14.6547 13.1519C14.7019 13.2619 14.7262 13.3803 14.7262 13.5C14.7262 13.6196 14.7019 13.738 14.6547 13.848C14.6076 13.958 14.5386 14.0573 14.4519 14.1398L2.26445 26.3273C2.18192 26.414 2.08265 26.483 1.97267 26.5301C1.86268 26.5772 1.74426 26.6015 1.6246 26.6015Z" fill="white"/>
</svg>
