<svg width="15" height="27" viewBox="0 0 15 27" fill="none" xmlns="http://www.w3.org/2000/svg">
<path d="M13.375 26.6017C13.5539 26.5991 13.7282 26.5442 13.8761 26.4436C14.0241 26.343 14.1393 26.2012 14.2074 26.0357C14.2755 25.8703 14.2936 25.6885 14.2594 25.5128C14.2252 25.3372 14.1401 25.1755 14.0149 25.0477L2.48245 13.5001L14.0149 1.95243C14.1846 1.78274 14.2799 1.55258 14.2799 1.31259C14.2799 1.0726 14.1846 0.842444 14.0149 0.672747C13.8452 0.50305 13.615 0.407715 13.375 0.407715C13.135 0.407715 12.9049 0.50305 12.7352 0.672747L0.547688 12.8602C0.461037 12.9428 0.39205 13.042 0.344913 13.152C0.297775 13.262 0.273469 13.3804 0.273469 13.5001C0.273469 13.6198 0.297775 13.7382 0.344913 13.8482C0.39205 13.9581 0.461037 14.0574 0.547688 14.1399L12.7352 26.3274C12.8177 26.4141 12.917 26.4831 13.027 26.5302C13.137 26.5773 13.2554 26.6017 13.375 26.6017Z" fill="#3D3D3D"/>
</svg>
