<svg width="15" height="27" viewBox="0 0 15 27" fill="none" xmlns="http://www.w3.org/2000/svg">
<path d="M1.62509 26.6017C1.44618 26.5991 1.27195 26.5442 1.12399 26.4436C0.976025 26.343 0.860841 26.2012 0.792716 26.0357C0.724591 25.8703 0.70652 25.6885 0.740744 25.5128C0.774969 25.3372 0.859983 25.1755 0.985247 25.0477L12.5177 13.5001L0.985247 1.95243C0.81555 1.78274 0.720215 1.55258 0.720215 1.31259C0.720215 1.0726 0.81555 0.842444 0.985247 0.672747C1.15494 0.50305 1.3851 0.407715 1.62509 0.407715C1.86508 0.407715 2.09524 0.50305 2.26493 0.672747L14.4524 12.8602C14.5391 12.9428 14.6081 13.042 14.6552 13.152C14.7023 13.262 14.7267 13.3804 14.7267 13.5001C14.7267 13.6198 14.7023 13.7382 14.6552 13.8482C14.6081 13.9581 14.5391 14.0574 14.4524 14.1399L2.26493 26.3274C2.18241 26.4141 2.08314 26.4831 1.97315 26.5302C1.86317 26.5773 1.74475 26.6017 1.62509 26.6017Z" fill="#3D3D3D"/>
</svg>
