<svg width="79" height="79" viewBox="0 0 79 79" fill="none" xmlns="http://www.w3.org/2000/svg">
<path fill-rule="evenodd" clip-rule="evenodd" d="M27.4545 14.061C30.26 9.9392 34.7789 7.60371 39.9468 8.07069C44.9419 8.52206 49.0089 11.1878 51.2667 15.4701C53.4822 19.6723 53.7961 25.1006 52.1415 30.9878C50.617 36.4122 47.3928 42.3807 42.1494 48.5327C47.5024 54.0538 54.9752 59.7462 65.1332 65.1662L62.2844 70.5055C51.857 64.9417 43.8998 58.9675 38.0328 52.9771C32.2502 58.7513 24.6611 64.6094 15.01 70.2631L11.9511 65.0413C21.427 59.4903 28.6416 53.852 33.9942 48.4575C28.7788 42.0193 25.8804 35.6777 24.8232 29.9265C23.6835 23.7269 24.6909 18.1211 27.4545 14.061ZM38.1196 43.9202C42.5228 38.5972 45.1143 33.6243 46.3154 29.3504C47.6717 24.5246 47.2212 20.7731 45.9133 18.2925C44.6477 15.8919 42.4323 14.3717 39.4022 14.0979C36.5447 13.8397 34.0974 15.0567 32.4574 17.4662C30.7754 19.9373 29.8578 23.8418 30.7752 28.8324C31.5856 33.2406 33.834 38.4265 38.1196 43.9202Z" fill="#F7C51E"/>
<path d="M17.175 60.0887L23.6198 66.4875L20.6606 69.468L14.2158 63.0692L17.175 60.0887Z" fill="#F7C51E"/>
<path d="M54.2561 66.2936L61.3187 60.584L63.9592 63.8502L56.8966 69.5598L54.2561 66.2936Z" fill="#F7C51E"/>
<path fill-rule="evenodd" clip-rule="evenodd" d="M40.0964 73.8755C59.1368 73.4908 74.2601 57.7437 73.8755 38.7033C73.4908 19.663 57.7437 4.53959 38.7033 4.92428C19.663 5.30898 4.53959 21.0561 4.92428 40.0964C5.30898 59.1368 21.0561 74.2601 40.0964 73.8755ZM40.1957 78.7915C61.9512 78.352 79.2311 60.3594 78.7915 38.604C78.352 16.8486 60.3594 -0.431346 38.604 0.00820302C16.8486 0.447752 -0.431346 18.4403 0.00820302 40.1957C0.447752 61.9512 18.4403 79.2311 40.1957 78.7915Z" fill="#F7C51E"/>
</svg>
