<svg width="146" height="62" viewBox="0 0 146 62" fill="none" xmlns="http://www.w3.org/2000/svg">
<path d="M101.33 0.00168467H65.2707C64.6612 0.00168467 64.1667 0.49986 64.1667 1.11383V8.38448C64.1667 8.99912 63.6728 9.49662 63.0627 9.49662H55.8435C55.234 9.49662 54.7395 9.9948 54.7395 10.6088V41.6471C54.7395 42.261 55.234 42.7592 55.8435 42.7592H64.9031C65.5126 42.7592 66.0071 42.261 66.0071 41.6471V12.4608C66.0071 11.8468 66.5009 11.3486 67.1111 11.3486H90.9246C91.51 11.3486 92.0714 11.1143 92.4857 10.6976L101.851 1.26732C102.315 0.800784 101.986 0.00168467 101.33 0.00168467Z" fill="#F7C51E"/>
<path d="M133.629 19.6826H116.861C116.276 19.6826 115.714 19.9169 115.3 20.3343L111.457 24.2046C110.994 24.6718 110.201 24.3412 110.201 23.6801V12.4645C110.201 11.8498 110.696 11.3523 111.305 11.3523H133.629C134.239 11.3523 134.733 11.8498 134.733 12.4645V18.5705C134.733 19.1845 134.239 19.6826 133.629 19.6826ZM108.361 1.1135V8.38484C108.361 8.9988 107.867 9.49697 107.257 9.49697H100.038C99.428 9.49697 98.9342 9.99448 98.9342 10.6091V41.6467C98.9342 42.2607 99.428 42.7589 100.038 42.7589H109.097C109.707 42.7589 110.201 42.2607 110.201 41.6467V31.0336H133.629C134.239 31.0336 134.733 31.5318 134.733 32.1457V41.6467C134.733 42.2607 135.228 42.7589 135.837 42.7589H144.897C145.506 42.7589 146 42.2607 146 41.6467V1.1135C146 0.499536 145.506 0.00136109 144.897 0.00136109H109.465C108.855 0.00136109 108.361 0.499536 108.361 1.1135Z" fill="#F7C51E"/>
<path d="M3.26413 11.3503H36.1775C36.7876 11.3503 37.2814 11.8485 37.2814 12.4624V14.5925C37.2814 15.2071 36.7876 15.7046 36.1775 15.7046H21.9134C21.328 15.7046 20.7666 15.9389 20.3523 16.3563L10.9873 25.79C10.5242 26.2572 10.8523 27.0556 11.5078 27.0556H38.2725C38.8819 27.0556 39.3764 27.5538 39.3764 28.1677V30.2964C39.3764 30.9104 38.8819 31.4086 38.2725 31.4086H3.51072C2.9006 31.4086 2.40675 31.9061 2.40675 32.5207V41.6467C2.40675 42.2607 2.9006 42.7589 3.51072 42.7589H48.3686C48.9787 42.7589 49.4726 42.2607 49.4726 41.6467V26.6651C49.4726 26.0754 49.24 25.5099 48.8264 25.0925L43.6359 19.8637C43.4288 19.655 43.3125 19.3723 43.3125 19.0774V18.3281C43.3125 18.0332 43.4288 17.7505 43.6359 17.5418L48.8264 12.3123C49.24 11.8956 49.4726 11.3294 49.4726 10.7397V1.11214C49.4726 0.497502 48.9787 0 48.3686 0H3.26413C2.65468 0 2.16016 0.497502 2.16016 1.11214V10.2382C2.16016 10.8521 2.65468 11.3503 3.26413 11.3503Z" fill="#F7C51E"/>
<path d="M3.25077 60.2C2.55143 60.2 1.92894 60.1148 1.38331 59.9445C0.837669 59.7665 0.376567 59.5226 0 59.2129L0.47263 58.1097C0.818456 58.3884 1.21039 58.6013 1.64844 58.7484C2.08649 58.8878 2.58601 58.9574 3.14702 58.9574C3.8233 58.9574 4.31899 58.8529 4.63408 58.6439C4.94916 58.4271 5.1067 58.1058 5.1067 57.68C5.1067 57.2852 4.97606 56.9949 4.71477 56.8091C4.45348 56.6155 4.05001 56.5187 3.50438 56.5187H1.464V55.3458H3.31993C3.84252 55.3458 4.23445 55.2529 4.49574 55.0671C4.76472 54.8736 4.89921 54.5871 4.89921 54.2078C4.89921 53.8439 4.75704 53.5575 4.47269 53.3484C4.18834 53.1317 3.7503 53.0233 3.15855 53.0233C2.68976 53.0233 2.24019 53.0929 1.80983 53.2323C1.37946 53.3717 0.995212 53.5768 0.65707 53.8478L0.184441 52.7446C0.545637 52.4349 0.999054 52.1988 1.54469 52.0362C2.09801 51.8658 2.68208 51.7807 3.29688 51.7807C4.30362 51.7807 5.06059 51.9859 5.56781 52.3962C6.0827 52.8065 6.34015 53.3446 6.34015 54.0104C6.34015 54.5058 6.19414 54.9278 5.90211 55.2762C5.61007 55.6168 5.21045 55.8452 4.70324 55.9613V55.7871C5.27962 55.8723 5.72919 56.0891 6.05196 56.4374C6.38242 56.7858 6.54765 57.2426 6.54765 57.8078C6.54765 58.2878 6.42469 58.7097 6.17877 59.0736C5.94053 59.4297 5.57549 59.7084 5.08365 59.9097C4.59949 60.1032 3.98853 60.2 3.25077 60.2Z" fill="white"/>
<path d="M6.94895 60.0839L10.6262 51.8968H11.8712L15.5946 60.0839H14.0845L13.0931 57.7845L13.6926 58.191H8.81641L9.4389 57.7845L8.44753 60.0839H6.94895ZM11.2372 53.4994L9.61181 57.3781L9.3121 57.0181H13.1854L12.9433 57.3781L11.2833 53.4994H11.2372Z" fill="white"/>
<path d="M16.4938 60.0839V51.8968H20.0558C20.9396 51.8968 21.6197 52.0865 22.0962 52.4659C22.5726 52.8375 22.8109 53.3562 22.8109 54.022C22.8109 54.5175 22.6648 54.9355 22.3728 55.2762C22.0808 55.6168 21.6773 55.8452 21.1624 55.9613V55.7871C21.7542 55.8723 22.2114 56.0891 22.5342 56.4374C22.8647 56.7781 23.0299 57.231 23.0299 57.7962C23.0299 58.5239 22.7801 59.0891 22.2806 59.4916C21.7811 59.8865 21.0856 60.0839 20.1941 60.0839H16.4938ZM17.9232 58.9458H20.0212C20.5207 58.9458 20.9088 58.8529 21.1855 58.6671C21.4621 58.4736 21.6005 58.16 21.6005 57.7265C21.6005 57.2852 21.4621 56.9716 21.1855 56.7858C20.9088 56.5923 20.5207 56.4955 20.0212 56.4955H17.9232V58.9458ZM17.9232 55.3691H19.8022C20.3324 55.3691 20.7244 55.2723 20.978 55.0787C21.2393 54.8775 21.3699 54.5833 21.3699 54.1962C21.3699 53.8091 21.2393 53.5187 20.978 53.3252C20.7244 53.1239 20.3324 53.0233 19.8022 53.0233H17.9232V55.3691Z" fill="white"/>
<path d="M24.1876 55.9845C24.1876 55.1252 24.3413 54.382 24.6487 53.7549C24.9638 53.1278 25.4134 52.6439 25.9974 52.3033C26.5815 51.9549 27.277 51.7807 28.0839 51.7807C28.8831 51.7807 29.5748 51.9549 30.1589 52.3033C30.7429 52.6439 31.1925 53.1278 31.5076 53.7549C31.8304 54.382 31.9917 55.1213 31.9917 55.9729C31.9917 56.8323 31.8304 57.5794 31.5076 58.2142C31.1925 58.8413 30.7429 59.329 30.1589 59.6774C29.5748 60.0258 28.8831 60.2 28.0839 60.2C27.277 60.2 26.5815 60.0258 25.9974 59.6774C25.421 59.329 24.9753 58.8413 24.6602 58.2142C24.3451 57.5794 24.1876 56.8362 24.1876 55.9845ZM25.7438 55.9845C25.7438 56.9058 25.9398 57.6258 26.3317 58.1445C26.7237 58.6632 27.3077 58.9226 28.0839 58.9226C28.837 58.9226 29.4173 58.6632 29.8246 58.1445C30.2319 57.6258 30.4355 56.9058 30.4355 55.9845C30.4355 55.0555 30.2319 54.3355 29.8246 53.8246C29.4249 53.3136 28.8447 53.0581 28.0839 53.0581C27.3077 53.0581 26.7237 53.3136 26.3317 53.8246C25.9398 54.3355 25.7438 55.0555 25.7438 55.9845Z" fill="white"/>
<path d="M32.5633 62V58.911H33.4048C33.789 58.4465 34.0734 57.8116 34.2578 57.0065C34.4422 56.2013 34.5345 55.2104 34.5345 54.0336V51.8968H40.425V58.911H41.6124V62H40.3213V60.0839H33.8659V62H32.5633ZM34.8918 58.911H38.9495V53.0581H35.8947V54.1729C35.8947 55.2955 35.8102 56.24 35.6411 57.0065C35.4797 57.7729 35.23 58.4078 34.8918 58.911Z" fill="white"/>
<path d="M45.943 60.0839V51.8968H51.4532V53.1162H47.4186V60.0839H45.943Z" fill="white"/>
<path d="M52.5399 60.0839V51.8968H54.0269V60.0839H52.5399Z" fill="white"/>
<path d="M55.078 62V58.911H55.9195C56.3038 58.4465 56.5881 57.8116 56.7726 57.0065C56.957 56.2013 57.0492 55.2104 57.0492 54.0336V51.8968H62.9398V58.911H64.1271V62H62.836V60.0839H56.3806V62H55.078ZM57.4066 58.911H61.4643V53.0581H58.4095V54.1729C58.4095 55.2955 58.3249 56.24 58.1559 57.0065C57.9945 57.7729 57.7447 58.4078 57.4066 58.911Z" fill="white"/>
<path d="M65.2945 60.0839V51.8968H68.9026C69.7941 51.8968 70.4742 52.1136 70.943 52.5471C71.4118 52.9807 71.6461 53.5768 71.6461 54.3355C71.6461 55.0865 71.4118 55.6826 70.943 56.1239C70.4742 56.5652 69.7941 56.7858 68.9026 56.7858H66.7815V60.0839H65.2945ZM66.7815 55.6013H68.7297C69.2215 55.6013 69.5904 55.4929 69.8363 55.2762C70.0823 55.0516 70.2052 54.7381 70.2052 54.3355C70.2052 53.9329 70.0823 53.6233 69.8363 53.4065C69.5904 53.182 69.2215 53.0697 68.7297 53.0697H66.7815V55.6013Z" fill="white"/>
<path d="M72.5943 55.9845C72.5943 55.1252 72.748 54.382 73.0554 53.7549C73.3705 53.1278 73.8201 52.6439 74.4041 52.3033C74.9882 51.9549 75.6837 51.7807 76.4906 51.7807C77.2898 51.7807 77.9815 51.9549 78.5656 52.3033C79.1496 52.6439 79.5992 53.1278 79.9143 53.7549C80.2371 54.382 80.3984 55.1213 80.3984 55.9729C80.3984 56.8323 80.2371 57.5794 79.9143 58.2142C79.5992 58.8413 79.1496 59.329 78.5656 59.6774C77.9815 60.0258 77.2898 60.2 76.4906 60.2C75.6837 60.2 74.9882 60.0258 74.4041 59.6774C73.8277 59.329 73.382 58.8413 73.0669 58.2142C72.7518 57.5794 72.5943 56.8362 72.5943 55.9845ZM74.1505 55.9845C74.1505 56.9058 74.3465 57.6258 74.7384 58.1445C75.1304 58.6632 75.7144 58.9226 76.4906 58.9226C77.2437 58.9226 77.824 58.6632 78.2313 58.1445C78.6386 57.6258 78.8422 56.9058 78.8422 55.9845C78.8422 55.0555 78.6386 54.3355 78.2313 53.8246C77.8316 53.3136 77.2514 53.0581 76.4906 53.0581C75.7144 53.0581 75.1304 53.3136 74.7384 53.8246C74.3465 54.3355 74.1505 55.0555 74.1505 55.9845Z" fill="white"/>
<path d="M80.8311 60.0839L84.5084 51.8968H85.7533L89.4768 60.0839H87.9666L86.9753 57.7845L87.5747 58.191H82.6985L83.321 57.7845L82.3297 60.0839H80.8311ZM85.1193 53.4994L83.4939 57.3781L83.1942 57.0181H87.0675L86.8254 57.3781L85.1655 53.4994H85.1193Z" fill="white"/>
<path d="M90.3759 60.0839V51.8968H93.984C94.8755 51.8968 95.5556 52.1136 96.0244 52.5471C96.4932 52.9807 96.7276 53.5768 96.7276 54.3355C96.7276 55.0865 96.4932 55.6826 96.0244 56.1239C95.5556 56.5652 94.8755 56.7858 93.984 56.7858H91.863V60.0839H90.3759ZM91.863 55.6013H93.8111C94.303 55.6013 94.6718 55.4929 94.9178 55.2762C95.1637 55.0516 95.2866 54.7381 95.2866 54.3355C95.2866 53.9329 95.1637 53.6233 94.9178 53.4065C94.6718 53.182 94.303 53.0697 93.8111 53.0697H91.863V55.6013Z" fill="white"/>
<path d="M98.065 60.0839V51.8968H99.3676L102.353 58.6671H101.996L104.981 51.8968H106.273V60.0839H104.924V54.0104H105.339L102.607 60.0839H101.719L98.9872 54.0104H99.4137V60.0839H98.065Z" fill="white"/>
<path d="M107.185 60.0839L110.862 51.8968H112.107L115.83 60.0839H114.32L113.329 57.7845L113.928 58.191H109.052L109.675 57.7845L108.683 60.0839H107.185ZM111.473 53.4994L109.847 57.3781L109.548 57.0181H113.421L113.179 57.3781L111.519 53.4994H111.473Z" fill="white"/>
<path d="M117.664 60.0839V53.1278H114.978V51.8968H121.837V53.1278H119.151V60.0839H117.664Z" fill="white"/>
<path d="M124.132 60.0839L125.562 57.3549L125.585 57.8194L121.827 51.8968H123.417L126.311 56.5187H126.023L128.432 51.8968H129.965L125.677 60.0839H124.132Z" fill="white"/>
<path d="M130.711 60.0839V51.8968H134.319C135.211 51.8968 135.891 52.1136 136.36 52.5471C136.828 52.9807 137.063 53.5768 137.063 54.3355C137.063 55.0865 136.828 55.6826 136.36 56.1239C135.891 56.5652 135.211 56.7858 134.319 56.7858H132.198V60.0839H130.711ZM132.198 55.6013H134.146C134.638 55.6013 135.007 55.4929 135.253 55.2762C135.499 55.0516 135.622 54.7381 135.622 54.3355C135.622 53.9329 135.499 53.6233 135.253 53.4065C135.007 53.182 134.638 53.0697 134.146 53.0697H132.198V55.6013Z" fill="white"/>
<path d="M138.389 60.0839V51.8968H139.76V58.0749H139.484L144.187 51.8968H145.305V60.0839H143.922V53.9058H144.198L139.484 60.0839H138.389Z" fill="white"/>
</svg>
